<?xml version="1.0" encoding="UTF-8" standalone="no"?>
<!DOCTYPE svg PUBLIC "-//W3C//DTD SVG 1.1//EN" "http://www.w3.org/Graphics/SVG/1.1/DTD/svg11.dtd">
<svg version="1.1" xmlns="http://www.w3.org/2000/svg" xmlns:xlink="http://www.w3.org/1999/xlink" preserveAspectRatio="xMidYMid meet" viewBox="0 0 640 640" width="640" height="640"><defs><path d="M460.01 207.36C459.97 185.16 436.75 167.17 408.09 167.14C390.23 167.14 247.39 167.14 229.53 167.14C200.87 167.17 177.65 185.16 177.61 207.36C177.61 228.12 177.61 394.22 177.61 414.98C177.61 421.86 184.81 427.44 193.69 427.44C193.7 427.44 193.7 427.44 193.7 427.44C195.38 427.44 203.78 427.44 218.9 427.44C195.5 457.66 182.5 474.45 179.9 477.8C175.33 483.71 177.8 491.36 185.42 494.9C193.04 498.44 202.93 496.53 207.5 490.62C210.76 486.41 227.07 465.35 256.43 427.44L381.19 427.44C410.55 465.35 426.86 486.41 430.12 490.62C434.69 496.53 444.57 498.44 452.2 494.9C459.82 491.36 462.29 483.71 457.72 477.8C457.72 477.8 457.72 477.8 457.72 477.8C455.12 474.45 442.12 457.66 418.71 427.44C433.84 427.44 442.24 427.44 443.92 427.44C452.8 427.44 460 421.87 460.01 414.99C460.01 414.98 460.01 414.98 460.01 414.98C460.01 373.46 460.01 228.12 460.01 207.36ZM220.51 373.44C220.51 361.97 232.51 352.68 247.32 352.68C262.13 352.68 274.13 361.97 274.13 373.44C274.13 384.92 262.13 394.21 247.32 394.21C247.32 394.21 247.32 394.21 247.32 394.21C232.51 394.21 220.51 384.92 220.51 373.44ZM363.5 373.44C363.5 361.97 375.5 352.68 390.31 352.68C405.11 352.68 417.12 361.97 417.12 373.44C417.12 384.92 405.11 394.21 390.31 394.21C390.31 394.21 390.31 394.21 390.31 394.21C375.5 394.21 363.5 384.92 363.5 373.44ZM427.84 319.45L209.78 319.45L209.78 233.6L427.84 233.6L427.84 319.45Z" id="a3c2XbcFZ3"></path></defs><g><g><g><use xlink:href="#a3c2XbcFZ3" opacity="1" fill="#f5f3f3" fill-opacity="1"></use><g><use xlink:href="#a3c2XbcFZ3" opacity="1" fill-opacity="0" stroke="#000000" stroke-width="1" stroke-opacity="0"></use></g></g></g></g></svg>